<svg id="Layer_1" data-name="Layer 1" xmlns="http://www.w3.org/2000/svg" viewBox="0 0 1131.95 482.36"><path fill="#ffffff" d="M56.07,343.36l7.55-9.46a3.25,3.25,0,0,1,2.52-1.22,3.42,3.42,0,0,1,2.52,1.21l4.86,6,10-12a3.21,3.21,0,0,1,4.75-.22L101,340.36,110.83,321a3.24,3.24,0,0,1,2.8-1.77,3.17,3.17,0,0,1,2.89,1.62l7.64,13.3,11.57-26.42a3.24,3.24,0,0,1,5.93,0l9.48,21.65,16.34-30.5a3.24,3.24,0,0,1,2.85-1.71h0a3.22,3.22,0,0,1,2.85,1.72l17.29,32.49,2.92,5.72a9.92,9.92,0,0,1,.07,1.36,6.26,6.26,0,0,1-.11,1.36,3.22,3.22,0,0,1-2.85,1.73h0a3.24,3.24,0,0,1-2.86-1.71l-17.31-32.57-16.62,31a3.23,3.23,0,0,1-5.81-.23l-9.19-21-11.19,25.53a3.24,3.24,0,0,1-5.77.31l-7.84-13.66-9.11,18a3.24,3.24,0,0,1-2.37,1.73,2.92,2.92,0,0,1-.51,0,3.25,3.25,0,0,1-2.28-.93L86.24,334.81,76,347.09a3,3,0,0,1-2.51,1.16,3.23,3.23,0,0,1-2.48-1.2l-4.81-6-5,6.3a3.23,3.23,0,0,1-5.06-4Zm982.86-17.72a3.23,3.23,0,0,0-2.79-1.6h0a3.24,3.24,0,0,0-2.78,1.59L1027.27,336,1017,315.54a3.23,3.23,0,0,0-2.88-1.78h0a3.24,3.24,0,0,0-2.89,1.78L1003,331.62l-14.18-22.93a3.24,3.24,0,0,0-2.75-1.53h0a3.21,3.21,0,0,0-2.75,1.54l-15,24.49-8.92-14.75a3.25,3.25,0,0,0-2.82-1.56,3.21,3.21,0,0,0-2.76,1.63l-8.7,15.31a3.23,3.23,0,1,0,5.62,3.19l6-10.51,8.82,14.58a3.27,3.27,0,0,0,2.76,1.56h0a3.25,3.25,0,0,0,2.76-1.55l15.06-24.54,14.46,23.37a3.18,3.18,0,0,0,2.89,1.53,3.24,3.24,0,0,0,2.74-1.77l7.85-15.52,10.11,20a3.23,3.23,0,0,0,5.67.18l6.28-10.69,7.66,13.12a3.22,3.22,0,0,0,4.9.83l11.73-10.07,9,9.28a3.24,3.24,0,0,0,4.47.17l4.15-3.66,5.94,6.22a3.24,3.24,0,0,0,4.68-4.47l-8.1-8.47a3.23,3.23,0,0,0-4.48-.19l-4.16,3.68-8.93-9.25a3.24,3.24,0,0,0-4.43-.21l-11.1,9.53Zm-48-140a20.8,20.8,0,0,1,20.62,18.24,13.08,13.08,0,0,1,8.73,9.92c4.56,2.24,7.25,9.22,7.25,13.34a5.94,5.94,0,0,1-2.73,5.46,8.83,8.83,0,0,1-4.71,1l-1.38,0-1.43,0H952.93l-1.42,0-1.38,0c-6.14,0-7.43-3.52-7.43-6.47,0-4.35,3-11.89,8-13.66a13.13,13.13,0,0,1,12.8-10.26,13,13,0,0,1,2.71.28,16.71,16.71,0,0,1,4.77-2.84A20.77,20.77,0,0,1,991,185.6Zm-16.42,20.66a10.33,10.33,0,0,0-5,3,3.24,3.24,0,0,1-3.56.83,6.54,6.54,0,0,0-2.41-.47,6.66,6.66,0,0,0-6.65,6.59v.09a3.23,3.23,0,0,1-3.56,3.22l-.38,0c-1,0-3.76,4.27-3.77,7.55.4,0,1.28,0,2.19,0,.5,0,1,0,1.57,0h64.38c.54,0,1.07,0,1.58,0l1.22,0c.44,0,.75,0,1,0,0-3.28-2.76-7.55-3.77-7.55a3.23,3.23,0,0,1-3.23-3.23,6.63,6.63,0,0,0-5.93-6.61,3.22,3.22,0,0,1-2.89-3.21v-.17a14.3,14.3,0,0,0-28.36-2.58A3.24,3.24,0,0,1,974.53,206.26ZM615,105c0-3.85,3.34-7,10.19-9.45A12.72,12.72,0,0,1,635.88,83,16.51,16.51,0,0,1,656.1,70a21.5,21.5,0,0,1,7.09-4.23c3.57-11.55,18.79-20,31.06-20,13.11,0,32.19,10,34.37,24.21,6.71,1.29,14.75,4.89,16.75,11.21,5.3.59,12.56,2.85,14.53,8,38.36,7.08,38.36,13.6,38.36,15.77a3.24,3.24,0,0,1-3.24,3.23H618.22A3.22,3.22,0,0,1,615,105Zm12-3.23H783.73a215.52,215.52,0,0,0-27.12-6.57A3.22,3.22,0,0,1,754,92c0-2-6.26-4.44-11.35-4.44a3.23,3.23,0,0,1-3.23-3.23c0-4.35-8.35-7.65-14.13-8.26a3.23,3.23,0,0,1-2.89-3.21v-.21c-.07-10.49-15.86-20.34-28.11-20.34-10,0-23.45,7.42-25.18,16.64a3.22,3.22,0,0,1-2.37,2.53,15.06,15.06,0,0,0-7.33,4.41,3.23,3.23,0,0,1-3.56.82,10.06,10.06,0,0,0-13.75,9.38A3.33,3.33,0,0,1,641,88.49a3.27,3.27,0,0,1-2.5.84q-.3,0-.63,0a6.19,6.19,0,0,0-6,7.67,3.24,3.24,0,0,1-2.19,3.86C628.64,101.13,627.77,101.43,627,101.72Zm171.57,37.84a21.55,21.55,0,0,1,16.29-18,35.9,35.9,0,0,1,35.77-33.3c15.93,0,35.68,11.08,40.06,27.23,11.52,3.52,26.18,12.71,28.11,24.45,6.21,1.51,15.9,5.87,18.21,12.61,4.11.41,13.83,1.47,23.45,3.13,24.52,4.25,27.9,8.72,27.9,12.92a3.24,3.24,0,0,1-3.24,3.24H771.62a3.24,3.24,0,0,1-3.24-3.24c0-5.35,5.56-9.65,17-13.12A16.29,16.29,0,0,1,798.57,139.56Zm-8.93,21.37a48.13,48.13,0,0,0-11.48,4.4H974.34c-8.62-2.54-23.39-5.07-39.14-6.5a3.24,3.24,0,0,1-4.15-3.18c0-.05,0-.18,0-.23,0-3.65-9.2-8.8-15.67-9.59a3.24,3.24,0,0,1-2.84-3.21v-.18c-.07-9.49-15-18.6-25.39-21.27a3.23,3.23,0,0,1-2.37-2.54c-2.57-13.71-20.15-23.95-34.17-23.95a29.42,29.42,0,0,0-29.38,29.39v.18a3.22,3.22,0,0,1-2.89,3.21,15.1,15.1,0,0,0-13.51,15,3.24,3.24,0,0,1-3.24,3.23,9.8,9.8,0,0,0-9.78,9.79,10.72,10.72,0,0,0,.15,1.72A3.23,3.23,0,0,1,789.64,160.93ZM187.91,147.56c0-9.32,15.62-14.06,22.38-15.68.08-.89.14-1.89.14-2.69a21.62,21.62,0,0,1,21.6-21.6h.55a28.43,28.43,0,0,1,21.87-14.44,35.87,35.87,0,0,1,28.74-14.42c14.64,0,29.61,8.68,35.71,20.24a28.76,28.76,0,0,1,17.61-6c14.41,0,36.29,10.74,39.19,25.47,7.81.92,20.84,5.74,23.77,13.07,4,.41,13.36,1.46,22.68,3.14,19.17,3.44,27,7.18,27,12.91a3.23,3.23,0,0,1-3.24,3.23H191.14A3.22,3.22,0,0,1,187.91,147.56Zm8.83-3.23H435.49c-8.27-2.54-22.52-5.07-37.74-6.5a3.24,3.24,0,0,1-4.15-3.1c0-.07,0-.23,0-.3,0-3.93-13.21-9.69-20.41-9.69l-.31,0a3.26,3.26,0,0,1-2.35-.89,3.31,3.31,0,0,1-1-2.3c-.16-11.79-20.7-22.13-33-22.13a22.34,22.34,0,0,0-15.38,6.13,3.22,3.22,0,0,1-2.48.87c-.4,0-.8-.06-1.21-.07h-.2a3.22,3.22,0,0,1-3-2.1c-3.95-10.51-17.86-19.07-31-19.07a29.38,29.38,0,0,0-24.31,12.88,3.25,3.25,0,0,1-2.51,1.41,22,22,0,0,0-19,12.85,3.22,3.22,0,0,1-3.36,1.86,16,16,0,0,0-2-.15,15.15,15.15,0,0,0-15.14,15.13,57,57,0,0,1-.43,5.75,3.23,3.23,0,0,1-2.57,2.76C207.37,139,200.31,141.66,196.74,144.33Zm251.45,215a3.24,3.24,0,0,0,0-6.47h-4a3.24,3.24,0,0,0,0,6.47Zm-12,0a3.24,3.24,0,0,0,0-6.47h-4a3.24,3.24,0,0,0,0,6.47Zm-12,0a3.24,3.24,0,0,0,0-6.47h-4a3.24,3.24,0,0,0,0,6.47Zm-12-6.47h-4a3.24,3.24,0,0,0,0,6.47h4a3.24,3.24,0,1,0,0-6.47Zm32,17.8h4a3.23,3.23,0,1,0,0-6.46h-4a3.23,3.23,0,1,0,0,6.46Zm-24,0h4a3.23,3.23,0,0,0,0-6.46h-4a3.23,3.23,0,0,0,0,6.46Zm-8-6.46h-4a3.23,3.23,0,0,0,0,6.46h4a3.23,3.23,0,1,0,0-6.46Zm32,17.8h4a3.24,3.24,0,0,0,0-6.47h-4a3.24,3.24,0,0,0,0,6.47Zm-12,0h4a3.24,3.24,0,0,0,0-6.47h-4a3.24,3.24,0,0,0,0,6.47Zm-12,0h4a3.24,3.24,0,0,0,0-6.47h-4a3.24,3.24,0,0,0,0,6.47Zm-8-6.47h-4a3.24,3.24,0,0,0,0,6.47h4a3.24,3.24,0,1,0,0-6.47Zm32,17.81h4a3.24,3.24,0,0,0,0-6.47h-4a3.24,3.24,0,0,0,0,6.47Zm-12,0h4a3.24,3.24,0,0,0,0-6.47h-4a3.24,3.24,0,0,0,0,6.47Zm-20-6.47h-4a3.24,3.24,0,0,0,0,6.47h4a3.24,3.24,0,1,0,0-6.47Zm20,17.8h4a3.23,3.23,0,1,0,0-6.46h-4a3.23,3.23,0,0,0,0,6.46Zm-12,0h4a3.23,3.23,0,0,0,0-6.46h-4a3.23,3.23,0,0,0,0,6.46Zm-8-6.46h-4a3.23,3.23,0,0,0,0,6.46h4a3.23,3.23,0,1,0,0-6.46Zm32,17.8h4a3.23,3.23,0,1,0,0-6.46h-4a3.23,3.23,0,1,0,0,6.46Zm-12,0h4a3.23,3.23,0,1,0,0-6.46h-4a3.23,3.23,0,1,0,0,6.46Zm-12,0h4a3.23,3.23,0,0,0,0-6.46h-4a3.23,3.23,0,0,0,0,6.46Zm-8-6.46h-4a3.23,3.23,0,0,0,0,6.46h4a3.23,3.23,0,1,0,0-6.46Zm32,17.8h4a3.24,3.24,0,0,0,0-6.47h-4a3.24,3.24,0,0,0,0,6.47Zm-24,0h4a3.24,3.24,0,0,0,0-6.47h-4a3.24,3.24,0,0,0,0,6.47Zm-8-6.47h-4a3.24,3.24,0,0,0,0,6.47h4a3.24,3.24,0,1,0,0-6.47Zm32,17.81h4a3.24,3.24,0,0,0,0-6.47h-4a3.24,3.24,0,0,0,0,6.47Zm-12,0h4a3.24,3.24,0,0,0,0-6.47h-4a3.24,3.24,0,0,0,0,6.47Zm-12,0h4a3.24,3.24,0,0,0,0-6.47h-4a3.24,3.24,0,0,0,0,6.47Zm-8-6.47h-4a3.24,3.24,0,0,0,0,6.47h4a3.24,3.24,0,1,0,0-6.47Zm32,17.8h4a3.23,3.23,0,1,0,0-6.46h-4a3.23,3.23,0,1,0,0,6.46Zm-12,0h4a3.23,3.23,0,1,0,0-6.46h-4a3.23,3.23,0,1,0,0,6.46Zm-12,0h4a3.23,3.23,0,0,0,0-6.46h-4a3.23,3.23,0,0,0,0,6.46Zm-8-6.46h-4a3.23,3.23,0,0,0,0,6.46h4a3.23,3.23,0,1,0,0-6.46Zm32,17.8h4a3.23,3.23,0,0,0,0-6.46h-4a3.23,3.23,0,0,0,0,6.46Zm-12,0h4a3.23,3.23,0,0,0,0-6.46h-4a3.23,3.23,0,0,0,0,6.46Zm-8,0a3.23,3.23,0,0,0,0-6.46h-4a3.23,3.23,0,0,0,0,6.46Zm-12-6.46h-4a3.23,3.23,0,0,0,0,6.46h4a3.23,3.23,0,1,0,0-6.46ZM363,345.4H356.2a3.23,3.23,0,1,0,0,6.46H363a3.23,3.23,0,0,0,0-6.46Zm0,14H356.2a3.24,3.24,0,0,0,0,6.47H363a3.24,3.24,0,0,0,0-6.47Zm0,28H356.2a3.23,3.23,0,1,0,0,6.46H363a3.23,3.23,0,0,0,0-6.46Zm0,14H356.2a3.23,3.23,0,1,0,0,6.46H363a3.23,3.23,0,0,0,0-6.46Zm0,14H356.2a3.24,3.24,0,0,0,0,6.47H363a3.24,3.24,0,0,0,0-6.47Zm0,14H356.2a3.24,3.24,0,0,0,0,6.47H363a3.24,3.24,0,0,0,0-6.47Zm0,14H356.2a3.23,3.23,0,1,0,0,6.46H363a3.23,3.23,0,0,0,0-6.46Zm327.41,42.29h-5a3.24,3.24,0,1,0,0,6.47h5a3.24,3.24,0,0,0,0-6.47Zm30,0h-5a3.24,3.24,0,0,0,0,6.47h5a3.24,3.24,0,1,0,0-6.47Zm-30-10.34h-5a3.23,3.23,0,1,0,0,6.46h5a3.23,3.23,0,1,0,0-6.46Zm30,0h-5a3.23,3.23,0,1,0,0,6.46h5a3.23,3.23,0,1,0,0-6.46Zm-30-10.34h-5a3.23,3.23,0,1,0,0,6.46h5a3.23,3.23,0,0,0,0-6.46Zm15,0h-5a3.23,3.23,0,0,0,0,6.46h5a3.23,3.23,0,0,0,0-6.46Zm15,0h-5a3.23,3.23,0,1,0,0,6.46h5a3.23,3.23,0,1,0,0-6.46Zm-30-10.34h-5a3.23,3.23,0,1,0,0,6.46h5a3.23,3.23,0,0,0,0-6.46Zm15,0h-5a3.23,3.23,0,0,0,0,6.46h5a3.23,3.23,0,0,0,0-6.46Zm0-10.34h-5a3.23,3.23,0,1,0,0,6.46h5a3.23,3.23,0,0,0,0-6.46Zm15,0h-5a3.23,3.23,0,1,0,0,6.46h5a3.23,3.23,0,1,0,0-6.46Zm-30-10.34h-5a3.23,3.23,0,1,0,0,6.46h5a3.23,3.23,0,0,0,0-6.46Zm15,0h-5a3.23,3.23,0,0,0,0,6.46h5a3.23,3.23,0,1,0,0-6.46Zm15,0h-5a3.23,3.23,0,0,0,0,6.46h5a3.23,3.23,0,1,0,0-6.46Zm-30-10.35h-5a3.24,3.24,0,1,0,0,6.47h5a3.24,3.24,0,0,0,0-6.47Zm15,0h-5a3.24,3.24,0,0,0,0,6.47h5a3.24,3.24,0,0,0,0-6.47Zm15,0h-5a3.24,3.24,0,0,0,0,6.47h5a3.24,3.24,0,1,0,0-6.47ZM673,465h-5a3.23,3.23,0,0,0,0,6.46h5a3.23,3.23,0,0,0,0-6.46Zm0-31h-5a3.23,3.23,0,0,0,0,6.46h5a3.23,3.23,0,0,0,0-6.46Zm0-10.35h-5a3.24,3.24,0,0,0,0,6.47h5a3.24,3.24,0,0,0,0-6.47ZM195,380.13h-5a3.24,3.24,0,1,0,0,6.47h5a3.24,3.24,0,0,0,0-6.47Zm0,41.36h-5a3.24,3.24,0,1,0,0,6.47h5a3.24,3.24,0,0,0,0-6.47Zm0,10.35h-5a3.23,3.23,0,1,0,0,6.46h5a3.23,3.23,0,0,0,0-6.46Zm-17.41-20.06h-5a3.24,3.24,0,0,0,0,6.47h5a3.24,3.24,0,0,0,0-6.47Zm0-21.31h-5a3.24,3.24,0,0,0,0,6.47h5a3.24,3.24,0,0,0,0-6.47Zm0-10.34h-5a3.24,3.24,0,0,0,0,6.47h5a3.24,3.24,0,0,0,0-6.47ZM195,390.47h-5a3.24,3.24,0,1,0,0,6.47h5a3.24,3.24,0,0,0,0-6.47Zm0,20.68h-5a3.24,3.24,0,1,0,0,6.47h5a3.24,3.24,0,0,0,0-6.47ZM493.67,476.7v33.93a3.24,3.24,0,0,1-6.47,0v-30.7H425.26v20.43a3.24,3.24,0,0,1-6.47,0V476.7a3.24,3.24,0,0,1,3.24-3.24h33.39V346.75a229.83,229.83,0,0,0-33-2.77,206.81,206.81,0,0,0-22.55,1.39V493a3.24,3.24,0,0,1-6.47,0V341.8h-5.25V485.2a3.23,3.23,0,1,1-6.46,0V463.8h-5.16a3.24,3.24,0,0,1,0-6.47h5.16v-7.52h-5.16a3.23,3.23,0,1,1,0-6.46h5.16v-7.53h-5.16a3.24,3.24,0,0,1,0-6.47h5.16v-7.52h-5.16a3.24,3.24,0,0,1,0-6.47h5.16v-7.53h-5.16a3.23,3.23,0,0,1,0-6.46h5.16v-7.53h-5.16a3.23,3.23,0,0,1,0-6.46h5.16v-7.53h-5.16a3.24,3.24,0,0,1,0-6.47h5.16v-7.52h-5.16a3.24,3.24,0,0,1,0-6.47h5.16v-7.53h-5.16a3.23,3.23,0,1,1,0-6.46h5.16v-3.6H338.3v3.6h4.34a3.23,3.23,0,0,1,0,6.46H338.3v7.53h4.34a3.24,3.24,0,0,1,0,6.47H338.3v7.52h4.34a3.24,3.24,0,0,1,0,6.47H338.3v7.53h4.34a3.23,3.23,0,1,1,0,6.46H338.3v21.52h4.34a3.24,3.24,0,0,1,0,6.47H338.3v7.52h4.34a3.24,3.24,0,0,1,0,6.47H338.3v7.53h4.34a3.23,3.23,0,1,1,0,6.46H338.3V485.2a3.23,3.23,0,0,1-6.46,0V341.8h-4.43V491.1a3.24,3.24,0,0,1-6.47,0V475.68h-2.22v22.68a3.23,3.23,0,1,1-6.46,0v-30.7H252.42l11,37.89,10.12-34.85a3.23,3.23,0,0,1,6.21,0L290.6,508l8-27.64a3.23,3.23,0,0,1,6.21,0L316,518.64a3.23,3.23,0,1,1-6.21,1.8l-8-27.61-9.6,33a3.23,3.23,0,0,1-3.1,2.33,3.11,3.11,0,0,1-.9-.13,3.23,3.23,0,0,1-2.21-4l1.34-4.6a3,3,0,0,1-.25-.61l-10.36-35.63L266.54,518a3.23,3.23,0,0,1-6.21,0l-14-48.11-4.62,15.9a3.23,3.23,0,0,1-6.21,0L219.86,432l-16.63,57.22a3.23,3.23,0,0,1-6.29-.37,3.29,3.29,0,0,1-.66-1.12l-17.59-51.16L163.15,490a3.24,3.24,0,0,1-3.11,2.33,3.5,3.5,0,0,1-.9-.13,3.23,3.23,0,0,1-2.2-4l4.28-14.73a.78.78,0,0,1-.05-.14l-16.85-58.1L129.25,467.1a3.23,3.23,0,0,1-6.21,0L97,377.55l-27,93a3.23,3.23,0,0,1-6.21,0l-8.32-28.64a3.23,3.23,0,1,1,6.21-1.81l5.22,18,27-93a3.23,3.23,0,0,1,6.21,0l26,89.55,15.07-51.85a3.23,3.23,0,0,1,6.21,0l12,41.53v-82.7a3.24,3.24,0,0,1,3.24-3.23h21.17V352a3.24,3.24,0,0,1,3.23-3.24h18.27V279.89l-13.62,2.67-45.89,7.7a3.23,3.23,0,1,1-1.07-6.38l45.8-7.68,14.78-2.9V191.72a3.23,3.23,0,0,1,3.23-3.23h71.06a3.23,3.23,0,0,1,3.23,3.23V253l44.94-16.51,8.36-7.8a3.23,3.23,0,0,1,1.63-.81l19.44-3.54a3.46,3.46,0,0,1,.91,0l34.16,3.53a3.14,3.14,0,0,1,.9.23l11.44,4.68,19.81-12.11a3.36,3.36,0,0,1,1.14-.43l16.3-2.81,31.77-24.25a3.34,3.34,0,0,1,.8-.45l6.74-2.59,7.68-11a3.25,3.25,0,0,1,2.65-1.38h8.56L518,157.66a3,3,0,0,1,.57-.5L561,127.7a3.25,3.25,0,0,1,2.69-.46l21.8,5.89a3.2,3.2,0,0,1,.87.38l8.94,5.59,32.43,7a3.19,3.19,0,0,1,1.56.82l27.2,26,10.56,3.9,161.24,58.84,161.12,40.57,56.42,9.41a3.23,3.23,0,0,1-1.06,6.38l-56.56-9.43-.25-.05L826.55,241.88l-.32-.1-161.4-58.9-11.21-4.13a3.17,3.17,0,0,1-1.11-.7l-27-25.87-32.09-6.88a3.2,3.2,0,0,1-1-.42l-9-5.64-19.88-5.37L522.6,162.25,504,183.16a3.23,3.23,0,0,1-2.42,1.09h-8.33L486,194.65a3.14,3.14,0,0,1-1.48,1.16l-7.23,2.78-32,24.46a3.2,3.2,0,0,1-1.41.62l-16.48,2.84-20.68,12.64a3.25,3.25,0,0,1-2.91.23l-12.53-5.12L358,230.82l-18.05,3.28-8.14,7.6a3.42,3.42,0,0,1-1.09.67L282.9,259.92V461.2h7.52V396a3.24,3.24,0,0,1,3.23-3.24h27.29V329.36a3.23,3.23,0,0,1,3.23-3.23h8.47v-3.89a3.23,3.23,0,0,1,3.23-3.23h20.34a3.23,3.23,0,0,1,3.23,3.23v3.89h37.19a3.24,3.24,0,0,1,3.24,3.23v9.49a211.58,211.58,0,0,1,22.55-1.34c21.46,0,43.28,4.4,44.19,4.59a3.23,3.23,0,1,1-1.29,6.34c-.05,0-1.3-.26-3.43-.64V473.46h28.55A3.24,3.24,0,0,1,493.67,476.7ZM190.35,358.36h15v-3.12h-15Zm15.13,99.89a3.18,3.18,0,0,1-.1-.77V428H205a3.24,3.24,0,0,1,0-6.47h.4v-3.87H205a3.24,3.24,0,0,1,0-6.47h.4v-3.87H205a3.24,3.24,0,0,1,0-6.47h.4v-3.87H205a3.24,3.24,0,0,1,0-6.47h.4V386.6H205a3.24,3.24,0,0,1,0-6.47h.4v-15.3H165.94v92.42l9.39-32.31a3.23,3.23,0,0,1,3-2.33,3.19,3.19,0,0,1,3.14,2.19l6.27,18.25a3.21,3.21,0,0,1,2.2-.87h5a3.23,3.23,0,1,1,0,6.46h-5a2.4,2.4,0,0,1-.28,0l10.08,29.33ZM217.67,195h-5.82v241.4l4.9-16.88a3.23,3.23,0,0,1,.92-1.46Zm6.46,9h40.61v-9H224.13Zm0,13h40.61v-6.55H224.13Zm0,13h40.61v-6.56H224.13Zm0,13h40.61v-6.56H224.13Zm0,13h40.61v-6.55H224.13Zm0,13h40.61v-6.55H224.13Zm0,13h40.61v-6.55H224.13Zm0,13h40.61v-6.55H224.13Zm0,13h40.61v-6.55H224.13Zm0,13h40.61v-6.55H224.13Zm0,13h40.61v-6.56H224.13Zm0,13h40.61V340.6H224.13Zm0,13h40.61v-6.55H224.13Zm0,13h40.61v-6.55H224.13Zm0,13h40.61v-6.55H224.13Zm0,13h40.61v-6.55H224.13Zm0,13h40.61V405.7H224.13Zm.52,13h40.09v-6.55H224.13v4.78Zm3.78,13h36.31v-6.55H226.53Zm36.31,6.46H230.31l8.3,28.58,4.63-15.9a3.23,3.23,0,0,1,6.21,0l1.09,3.77h14.2ZM276.43,195H271.2V461.2h5.23ZM320.94,465.8h-2.22v3.41h2.22Zm0-9.87H296.89v3.41h24.05Zm0-9.87H296.89v3.4h24.05Zm0-9.88H296.89v3.41h24.05Zm0-9.87H296.89v3.41h24.05Zm0-9.87H296.89v3.4h24.05Zm0-17.22H296.89V410h24.05ZM393.4,332.6H356.2a3.24,3.24,0,0,1-3.23-3.24v-3.88H339.1v3.88a3.23,3.23,0,0,1-3.23,3.24h-8.46v2.74h66ZM51.26,409.74a3.25,3.25,0,0,0-4,2.2L34.15,457a3.24,3.24,0,0,0,2.2,4,3.63,3.63,0,0,0,.91.13,3.23,3.23,0,0,0,3.1-2.33l13.1-45.08A3.24,3.24,0,0,0,51.26,409.74Zm980.83,69.69,1.28,3.32a3.23,3.23,0,1,1-6,2.34l-13.84-35.68-14.67,38.4a3.27,3.27,0,0,1-.48.83l2.68,4.46a3.22,3.22,0,0,1-1.11,4.43,3.15,3.15,0,0,1-1.66.47,3.21,3.21,0,0,1-2.77-1.57l-23.33-38.84-16,28.9a3.23,3.23,0,0,1-2.71,1.66,3.15,3.15,0,0,1-2.82-1.47l-7.75-11.92L934,494.34a3.23,3.23,0,0,1-5.89-2.66l11.28-25a3.23,3.23,0,0,1,5.65-.43l8,12.36,10.44-18.81H903.31v20.42a3.24,3.24,0,1,1-6.47,0V456.59a3.24,3.24,0,0,1,3.24-3.23h29.35V360.51l-8.78-9.11a3.23,3.23,0,0,1-4.68,4.25v5.51l3.79,2.76a3.23,3.23,0,0,1-3.79,5.24v7.49l3.79,2.76a3.23,3.23,0,0,1-3.79,5.24v7.49l3.79,2.76a3.23,3.23,0,0,1-3.79,5.24v7.49l3.79,2.76a3.23,3.23,0,0,1-3.79,5.24v6.92l3.79,2.76a3.23,3.23,0,0,1-3.79,5.24v.53a3.24,3.24,0,1,1-6.47,0v-3.15H890v7.27h21a3.15,3.15,0,0,1,1.9.62l6.85,5A3.24,3.24,0,1,1,916,446l-3.59-2.61H890V501a3.23,3.23,0,1,1-6.46,0v-1.11H807.2v2.18a3.24,3.24,0,0,1-6.47,0V426.4a3.08,3.08,0,0,1-1.33.29h-4a3.23,3.23,0,1,1,0-6.46h4a3.24,3.24,0,0,1,1.33.29v-.28A3.24,3.24,0,0,1,804,417h26.44V324.3H783.23v5.25l.2,0h4a3.24,3.24,0,0,1,0,6.47h-4l-.2,0v4.91l.2,0h4a3.23,3.23,0,1,1,0,6.46h-4l-.2,0v4.92l.2,0h4a3.23,3.23,0,0,1,0,6.46h-4l-.2,0v4.91l.2,0h4a3.24,3.24,0,0,1,0,6.47h-4l-.2,0v4.91l.2,0h4a3.23,3.23,0,1,1,0,6.46h-4l-.2,0v4.92l.2,0h4a3.23,3.23,0,1,1,0,6.46h-4l-.2,0v4.92l.2,0h4a3.23,3.23,0,1,1,0,6.46h-4l-.2,0v4.91l.2,0h4a3.24,3.24,0,0,1,0,6.47h-4l-.2,0v4.91l.2,0h4a3.23,3.23,0,1,1,0,6.46h-4l-.2,0v4.92l.2,0h4a3.23,3.23,0,1,1,0,6.46h-4l-.2,0v31.12a3.23,3.23,0,1,1-6.46,0V271.9H771v204a3.23,3.23,0,1,1-6.46,0v-204h-6V467.35a3.23,3.23,0,0,1-6.46,0V271.9h-6V481.06a3.24,3.24,0,0,1-6.47,0V271.9h-6V402.7a3.19,3.19,0,0,1,1,2.36v94.83a3.24,3.24,0,0,1-6.47,0V408.29h-66.4V479a3.21,3.21,0,0,1-.4,1.54v18.8a3.24,3.24,0,1,1-6.47,0V405.06a3.18,3.18,0,0,1,.41-1.53V354.25H639.22V465.11h2.34a3.24,3.24,0,0,1,3.24,3.24v33.93a3.24,3.24,0,0,1-6.47,0v-30.7h-66.8V505a3.24,3.24,0,0,1-6.47,0V481.11H530.11v10.27a3.23,3.23,0,0,1-6.46,0V477.92a.43.43,0,0,1,0-.05.43.43,0,0,0,0-.05v-9.77s0,0,0-.05,0,0,0-.05v-9.78a.43.43,0,0,1,0-.05.43.43,0,0,0,0-.05V448.3s0,0,0-.05,0,0,0-.05v-9.77s0,0,0-.05,0,0,0-.05v-9.78a.43.43,0,0,1,0-.05.43.43,0,0,0,0-.05v-9.77s0,0,0-.05,0,0,0-.05V401.41a3.23,3.23,0,0,1,3.23-3.23h39V377.3H514.27V456a3.23,3.23,0,1,1-6.46,0V377.3h-1.95V456a3.24,3.24,0,0,1-6.47,0V377.3h-8.51v81.28a3.23,3.23,0,0,1-6.46,0V351a3.24,3.24,0,0,1,3.23-3.24c30.47,0,62.56,5.56,82,9.62l.28.06c10.87,2.28,17.68,4.08,17.87,4.13a3.23,3.23,0,0,1,2.4,3.13v24.84h6.93a3.23,3.23,0,0,1,3.23,3.23v5.39h9.39a3.24,3.24,0,0,1,3.24,3.23v63.7h6.12V351a3.23,3.23,0,0,1,3.23-3.24h28.36l-33.35-4.4a3.23,3.23,0,0,1-2.81-3.2v-8.09a3.23,3.23,0,0,1,3.66-3.2l82.16,10.84a3.23,3.23,0,0,1,2.81,3.2V351a3.24,3.24,0,0,1-3.24,3.23l-.42,0L698,354v47.8h16.29V260.3a3.23,3.23,0,0,1,3.24-3.23H780a3.23,3.23,0,0,1,3.23,3.23v57.53h50.41a3.23,3.23,0,0,1,3.23,3.23V417h11.34V359.21a3.25,3.25,0,0,1,.91-2.25l10.65-11V300.58a3.24,3.24,0,0,1,1.32-2.61l10.47-7.64,8.64-18.1a3.23,3.23,0,0,1,2.92-1.84H901a3.25,3.25,0,0,1,2.92,1.84l8.63,18.1L923,298a3.25,3.25,0,0,1,1.33,2.61v45.34L935,357a3.26,3.26,0,0,1,.91,2.25v22.15h48.38V368a3.23,3.23,0,0,1,3.23-3.23h1.64c2.34-8.32,22.68-10.61,35-10.61s32.65,2.29,35,10.61h1.64A3.23,3.23,0,0,1,1064,368v69.5l5,17.16,26-89.55a3.23,3.23,0,0,1,6.21,0l27.31,94L1145,411.78a3.27,3.27,0,0,1,3.09-2.17,3.23,3.23,0,0,1,3,2.23l14.72,45.08a3.24,3.24,0,1,1-6.15,2l-11.74-36-16.6,47.76a3.23,3.23,0,0,1-3.06,2.18h-.08a3.24,3.24,0,0,1-3-2.33l-27-93-26,89.55a3.23,3.23,0,0,1-6.21,0l-15.07-51.85-18,62.11ZM499.39,354.52q-4.26-.19-8.51-.25v16.57h8.51Zm8.42.47-1.95-.13v16h1.95ZM580,396v2.16h13.87V396Zm-7.67-25.18h11.37v-3.61c-2.32-.58-6.24-1.52-11.37-2.64Zm0,27.34h1.21v-5.39a3.23,3.23,0,0,1,3.23-3.23h6.93V377.3H572.32Zm-6.46-27.34v-7.61a468.64,468.64,0,0,0-51.59-7.72v15.33Zm-.8,100.39H530.11v3.41h34.95Zm41.42-9.87H530.11v3.41h76.37Zm0-9.88H530.11v3.41h76.37Zm0-9.87H530.11V445h76.37Zm0-9.87H530.11v3.41h76.37Zm0-9.88H530.11v3.41h76.37Zm0-17.21H530.11V415.4h76.37Zm26.28-50.4h-7.23V465.11h7.23Zm45.07,0H661.76v47.58h16.07Zm13.7,0H684.3v47.58h7.23Zm5.13-8.48-75.69-10v1.56l75.69,10Zm30.47-73.87h-6.38V401.83h6.38Zm49.64-8.37h-56v1.9h56ZM880.45,286.7a3.32,3.32,0,0,1,.14.9v8.29H903V287.6a3.21,3.21,0,0,1,.36-1.45L899,276.86H885.15ZM903,326.86v-7.27H880.59v7.27Zm-22.44,8.22v9.73H903v-9.73ZM903,311.37v-7.26H880.59v7.26ZM864.81,350l6.29-4.57a3.18,3.18,0,0,1,1.9-.62h1.13v-6.88a3.23,3.23,0,0,1-3.41-5.46l3.41-2.48v-7.54a3.23,3.23,0,0,1-3.41-5.47l3.41-2.48V307a3.24,3.24,0,0,1-3.41-5.48l3.41-2.48v-2.56l-7.9,5.77v45a3.2,3.2,0,0,1-.91,2.25Zm-10.13,67h13v-1.14a3.23,3.23,0,0,1-3.41-5.47l3.41-2.48v-7.55a3.23,3.23,0,0,1-3.41-5.46l3.41-2.48v-7.54a3.23,3.23,0,0,1-3.41-5.47l3.41-2.48V369.4a3.24,3.24,0,0,1-3.41-5.48l3.41-2.48v-5.56a3.22,3.22,0,0,1-4.4-4.27l-8.58,8.9Zm28.89,73.05H807.2v3.41h76.37Zm0-9.87H807.2v3.41h76.37Zm0-9.87H807.2v3.4h76.37Zm0-9.88H807.2v3.41h76.37Zm0-9.87H807.2V454h76.37Zm0-9.87H807.2v3.41h76.37Zm0-17.22H807.2v10.75h76.37ZM909.5,413H874.12v4H886.8a3.24,3.24,0,0,1,3.18,2.71H909.5Zm0-15.48H874.12v7.27H909.5Zm0-15.49H874.12v7.27H909.5Zm0-15.49H874.12v7.27H909.5Zm0-13.51H874.12v5.29H909.5Zm10-2.78-.76-.78a3.25,3.25,0,0,1-.9-2.25v-45l-8.38-6.12v2.63l3.79,2.76a3.23,3.23,0,0,1-3.79,5.24v7.49l3.79,2.76a3.23,3.23,0,0,1-3.79,5.24v7.49l3.79,2.76a3.23,3.23,0,0,1-3.79,5.24v7.1H911a3.15,3.15,0,0,1,1.9.62Zm64.74,37.58H935.9v65.53h31l.23,0,2.12-3.83a3.25,3.25,0,0,1,2.78-1.66,3.34,3.34,0,0,1,2.82,1.57l9.46,15.74V443.48H942.62a3.24,3.24,0,0,1,0-6.47h41.66v-7.73H942.62a3.24,3.24,0,0,1,0-6.47h41.66v-7.74H942.62a3.23,3.23,0,0,1,0-6.46h41.66v-7.74H942.62a3.24,3.24,0,0,1,0-6.47h41.66Zm13.56-23.11h52.61c-4.2-2-13.42-4.14-26.3-4.14S1002,362.76,997.84,364.72Zm59.7,6.47h-66.8V476l3.48,5.78,16.24-42.49a3.22,3.22,0,0,1,3-2.08h0a3.26,3.26,0,0,1,3,2.06l11.78,30.39,3.78-13h-4.94a3.24,3.24,0,0,1,0-6.47h5a3.28,3.28,0,0,1,1.67.48l13.92-47.87a3.23,3.23,0,0,1,6.21,0l3.61,12.44ZM819.38,358.67h4a3.23,3.23,0,0,0,0-6.46h-4a3.23,3.23,0,0,0,0,6.46Zm0,11.34h4a3.24,3.24,0,0,0,0-6.47h-4a3.24,3.24,0,0,0,0,6.47Zm0-34h4a3.24,3.24,0,0,0,0-6.47h-4a3.24,3.24,0,0,0,0,6.47Zm0,45.34h4a3.23,3.23,0,1,0,0-6.46h-4a3.23,3.23,0,0,0,0,6.46Zm0,22.68h4a3.23,3.23,0,1,0,0-6.46h-4a3.23,3.23,0,0,0,0,6.46Zm0,11.34h4a3.24,3.24,0,0,0,0-6.47h-4a3.24,3.24,0,0,0,0,6.47Zm-12-68h4a3.23,3.23,0,1,0,0-6.46h-4a3.23,3.23,0,0,0,0,6.46Zm0,68h4a3.24,3.24,0,0,0,0-6.47h-4a3.24,3.24,0,0,0,0,6.47Zm0-56.69h4a3.23,3.23,0,0,0,0-6.46h-4a3.23,3.23,0,0,0,0,6.46Zm0-22.67h4a3.24,3.24,0,0,0,0-6.47h-4a3.24,3.24,0,0,0,0,6.47Zm0,68h4a3.23,3.23,0,1,0,0-6.46h-4a3.23,3.23,0,0,0,0,6.46Zm0-34h4a3.24,3.24,0,0,0,0-6.47h-4a3.24,3.24,0,0,0,0,6.47Zm0,11.33h4a3.23,3.23,0,1,0,0-6.46h-4a3.23,3.23,0,0,0,0,6.46Zm12,11.34h4a3.23,3.23,0,1,0,0-6.46h-4a3.23,3.23,0,0,0,0,6.46Zm-24,0h4a3.23,3.23,0,1,0,0-6.46h-4a3.23,3.23,0,1,0,0,6.46Zm0-11.34h4a3.23,3.23,0,1,0,0-6.46h-4a3.23,3.23,0,1,0,0,6.46Zm0,22.68h4a3.23,3.23,0,1,0,0-6.46h-4a3.23,3.23,0,1,0,0,6.46Zm0,11.34h4a3.24,3.24,0,0,0,0-6.47h-4a3.24,3.24,0,1,0,0,6.47Zm0-79.36h4a3.24,3.24,0,0,0,0-6.47h-4a3.24,3.24,0,1,0,0,6.47Zm0,22.67h4a3.23,3.23,0,0,0,0-6.46h-4a3.23,3.23,0,1,0,0,6.46Zm0-11.34h4a3.23,3.23,0,1,0,0-6.46h-4a3.23,3.23,0,1,0,0,6.46Zm201.65,36.9h5a3.24,3.24,0,0,0,0-6.47h-5a3.24,3.24,0,0,0,0,6.47Zm15,51.71h5a3.24,3.24,0,0,0,0-6.47h-5a3.24,3.24,0,0,0,0,6.47Zm-15-41.37h5a3.23,3.23,0,0,0,0-6.46h-5a3.23,3.23,0,0,0,0,6.46Zm15,31h5a3.24,3.24,0,0,0,0-6.47h-5a3.24,3.24,0,0,0,0,6.47Zm0-10.35h5a3.23,3.23,0,1,0,0-6.46h-5a3.23,3.23,0,0,0,0,6.46Zm-15,31h5a3.24,3.24,0,0,0,0-6.47h-5a3.24,3.24,0,0,0,0,6.47Zm0-41.37h5a3.23,3.23,0,0,0,0-6.46h-5a3.23,3.23,0,0,0,0,6.46Zm0,31h5a3.24,3.24,0,0,0,0-6.47h-5a3.24,3.24,0,0,0,0,6.47Zm15-31h5a3.23,3.23,0,0,0,0-6.46h-5a3.23,3.23,0,0,0,0,6.46Zm15,0h5a3.23,3.23,0,0,0,0-6.46h-5a3.23,3.23,0,1,0,0,6.46Zm17.07-10.34h5a3.23,3.23,0,1,0,0-6.46h-5a3.23,3.23,0,0,0,0,6.46Zm-17.07-10.34h5a3.24,3.24,0,0,0,0-6.47h-5a3.24,3.24,0,0,0,0,6.47Zm0,31h5a3.23,3.23,0,0,0,0-6.46h-5a3.23,3.23,0,1,0,0,6.46Zm0-20.68h5a3.23,3.23,0,0,0,0-6.46h-5a3.23,3.23,0,1,0,0,6.46Zm-15-10.34h5a3.24,3.24,0,0,0,0-6.47h-5a3.24,3.24,0,0,0,0,6.47Zm15,51.71h5a3.24,3.24,0,0,0,0-6.47h-5a3.24,3.24,0,0,0,0,6.47Zm0,10.34h5a3.24,3.24,0,0,0,0-6.47h-5a3.24,3.24,0,0,0,0,6.47Z" transform="translate(-34.02 -45.81)"/></svg>
